<?xml version="1.0" encoding="iso-8859-1"?>
<!-- Generator: Adobe Illustrator 16.0.0, SVG Export Plug-In . SVG Version: 6.00 Build 0)  -->
<!DOCTYPE svg PUBLIC "-//W3C//DTD SVG 1.1//EN" "http://www.w3.org/Graphics/SVG/1.1/DTD/svg11.dtd">
<svg version="1.1" id="Capa_1" xmlns="http://www.w3.org/2000/svg" xmlns:xlink="http://www.w3.org/1999/xlink" x="0px" y="0px"
	 width="48.824px" height="48.824px" viewBox="0 0 48.824 48.824" style="enable-background:new 0 0 48.824 48.824;"
	 xml:space="preserve">
<g>
	<g>
		<g>
			<path style ="fill: black"  d="M28.043,32.874c-0.238,0-0.475-0.085-0.66-0.249l-4.623-4.07h-5.051c-0.552,0-1-0.449-1-1v-7.2c0-0.552,0.448-1,1-1
				h4.688l5.078-3.508c0.305-0.211,0.702-0.234,1.032-0.062c0.329,0.173,0.535,0.514,0.535,0.886v15.203
				c0,0.394-0.229,0.749-0.588,0.911C28.322,32.846,28.182,32.874,28.043,32.874z M18.709,26.553h4.428
				c0.243,0,0.479,0.09,0.66,0.25l3.246,2.857V18.577l-3.766,2.602c-0.166,0.115-0.365,0.177-0.568,0.177h-4V26.553z"/>
		</g>
		<g>
			<path style ="fill: black"   d="M24.412,48.824C10.951,48.824,0,37.873,0,24.412S10.951,0,24.412,0s24.412,10.951,24.412,24.412
				S37.873,48.824,24.412,48.824z M24.412,2C12.055,2,2,12.055,2,24.412C2,36.77,12.055,46.824,24.412,46.824
				c12.357,0,22.412-10.055,22.412-22.412C46.824,12.054,36.77,2,24.412,2z"/>
		</g>
	</g>
</g>
<g>
</g>
<g>
</g>
<g>
</g>
<g>
</g>
<g>
</g>
<g>
</g>
<g>
</g>
<g>
</g>
<g>
</g>
<g>
</g>
<g>
</g>
<g>
</g>
<g>
</g>
<g>
</g>
<g>
</g>
</svg>
